<mxfile host="app.diagrams.net" modified="2022-02-22T07:39:40.699Z" agent="5.0 (Windows NT 10.0; Win64; x64) AppleWebKit/537.36 (KHTML, like Gecko) Chrome/98.0.4758.102 Safari/537.36" etag="dIyrfHKiuLdX-ysqnCzf" version="16.5.4" type="github">
  <diagram id="C5RBs43oDa-KdzZeNtuy" name="Page-1">
    <mxGraphModel dx="1422" dy="762" grid="1" gridSize="10" guides="1" tooltips="1" connect="1" arrows="1" fold="1" page="1" pageScale="1" pageWidth="827" pageHeight="1169" math="0" shadow="0">
      <root>
        <mxCell id="WIyWlLk6GJQsqaUBKTNV-0" />
        <mxCell id="WIyWlLk6GJQsqaUBKTNV-1" parent="WIyWlLk6GJQsqaUBKTNV-0" />
        <mxCell id="H9kln0P1R_egPsXvtzC8-3" value="" style="edgeStyle=orthogonalEdgeStyle;rounded=0;orthogonalLoop=1;jettySize=auto;html=1;" edge="1" parent="WIyWlLk6GJQsqaUBKTNV-1" source="H9kln0P1R_egPsXvtzC8-1" target="H9kln0P1R_egPsXvtzC8-2">
          <mxGeometry relative="1" as="geometry" />
        </mxCell>
        <mxCell id="H9kln0P1R_egPsXvtzC8-1" value="아이스크림 에듀에서 과제 출제" style="rounded=1;whiteSpace=wrap;html=1;" vertex="1" parent="WIyWlLk6GJQsqaUBKTNV-1">
          <mxGeometry x="50" y="330" width="120" height="60" as="geometry" />
        </mxCell>
        <mxCell id="H9kln0P1R_egPsXvtzC8-5" value="" style="edgeStyle=orthogonalEdgeStyle;rounded=0;orthogonalLoop=1;jettySize=auto;html=1;" edge="1" parent="WIyWlLk6GJQsqaUBKTNV-1" source="H9kln0P1R_egPsXvtzC8-2" target="H9kln0P1R_egPsXvtzC8-4">
          <mxGeometry relative="1" as="geometry" />
        </mxCell>
        <mxCell id="H9kln0P1R_egPsXvtzC8-2" value="학생의 과제 수행" style="whiteSpace=wrap;html=1;rounded=1;" vertex="1" parent="WIyWlLk6GJQsqaUBKTNV-1">
          <mxGeometry x="250" y="330" width="120" height="60" as="geometry" />
        </mxCell>
        <mxCell id="H9kln0P1R_egPsXvtzC8-7" value="" style="edgeStyle=orthogonalEdgeStyle;rounded=0;orthogonalLoop=1;jettySize=auto;html=1;" edge="1" parent="WIyWlLk6GJQsqaUBKTNV-1" source="H9kln0P1R_egPsXvtzC8-4" target="H9kln0P1R_egPsXvtzC8-6">
          <mxGeometry relative="1" as="geometry" />
        </mxCell>
        <mxCell id="H9kln0P1R_egPsXvtzC8-4" value="교육자에게 알림" style="whiteSpace=wrap;html=1;rounded=1;" vertex="1" parent="WIyWlLk6GJQsqaUBKTNV-1">
          <mxGeometry x="450" y="330" width="120" height="60" as="geometry" />
        </mxCell>
        <mxCell id="H9kln0P1R_egPsXvtzC8-6" value="교육자는 피드백 테이블에서 학생의 과제 확인 후 피드백" style="whiteSpace=wrap;html=1;rounded=1;" vertex="1" parent="WIyWlLk6GJQsqaUBKTNV-1">
          <mxGeometry x="650" y="330" width="120" height="60" as="geometry" />
        </mxCell>
      </root>
    </mxGraphModel>
  </diagram>
</mxfile>
